{
	"asset":{
		"generator":"Khronos glTF Blender I/O v3.6.27",
		"version":"2.0"
	},
	"scene":0,
	"scenes":[
		{
			"name":"Scene",
			"nodes":[
				0,
				1,
				2,
				3
			]
		}
	],
	"nodes":[
		{
			"mesh":0,
			"name":"Cube",
			"rotation":[
				0.001708072260953486,
				-0.015396032482385635,
				-0.21746987104415894,
				0.9759441018104553
			],
			"scale":[
				0.28661903738975525,
				0.28661903738975525,
				0.28661903738975525
			],
			"translation":[
				-0.012605864554643631,
				-0.12039526551961899,
				-0.013575616292655468
			]
		},
		{
			"mesh":1,
			"name":"Cube.001",
			"rotation":[
				0.0018299657385796309,
				-0.016494719311594963,
				-0.2329888939857483,
				0.9723377823829651
			],
			"scale":[
				0.6009548306465149,
				0.6009547710418701,
				0.6009547114372253
			],
			"translation":[
				0.11236251890659332,
				0.10620169341564178,
				-0.01563272625207901
			]
		},
		{
			"mesh":2,
			"name":"Sphere",
			"scale":[
				0.019270705059170723,
				0.019270705059170723,
				0.019270705059170723
			],
			"translation":[
				0.053198523819446564,
				0.00013191625475883484,
				-0.026586584746837616
			]
		},
		{
			"mesh":3,
			"name":"Sphere.001",
			"scale":[
				0.019270705059170723,
				0.019270705059170723,
				0.019270705059170723
			],
			"translation":[
				-0.09399084746837616,
				0.03843602538108826,
				0.03869754448533058
			]
		}
	],
	"materials":[
		{
			"doubleSided":true,
			"name":"Material.009",
			"pbrMetallicRoughness":{}
		},
		{
			"doubleSided":true,
			"name":"Material.003",
			"pbrMetallicRoughness":{
				"baseColorFactor":[
					0.8000000715255737,
					0,
					0.004655968863517046,
					1
				],
				"metallicFactor":0,
				"roughnessFactor":0.20769229531288147
			}
		},
		{
			"doubleSided":true,
			"name":"Material.003",
			"pbrMetallicRoughness":{
				"baseColorFactor":[
					0.8000000715255737,
					0,
					0.004655968863517046,
					1
				],
				"metallicFactor":0,
				"roughnessFactor":0.20769229531288147
			}
		}
	],
	"meshes":[
		{
			"name":"Mesh",
			"primitives":[
				{
					"attributes":{
						"POSITION":0,
						"NORMAL":1,
						"TEXCOORD_0":2
					},
					"indices":3,
					"material":0
				}
			]
		},
		{
			"name":"Mesh",
			"primitives":[
				{
					"attributes":{
						"POSITION":4,
						"NORMAL":5,
						"TEXCOORD_0":6
					},
					"indices":7,
					"material":1
				}
			]
		},
		{
			"name":"Sphere.001",
			"primitives":[
				{
					"attributes":{
						"POSITION":8,
						"NORMAL":9,
						"TEXCOORD_0":10
					},
					"indices":11,
					"material":2
				}
			]
		},
		{
			"name":"Sphere.002",
			"primitives":[
				{
					"attributes":{
						"POSITION":12,
						"NORMAL":13,
						"TEXCOORD_0":14
					},
					"indices":11,
					"material":2
				}
			]
		}
	],
	"accessors":[
		{
			"bufferView":0,
			"componentType":5126,
			"count":2626,
			"max":[
				1.4162399768829346,
				2.1294119358062744,
				1.4162402153015137
			],
			"min":[
				-1.4162399768829346,
				-1.193734049797058,
				-1.4162400960922241
			],
			"type":"VEC3"
		},
		{
			"bufferView":1,
			"componentType":5126,
			"count":2626,
			"type":"VEC3"
		},
		{
			"bufferView":2,
			"componentType":5126,
			"count":2626,
			"type":"VEC2"
		},
		{
			"bufferView":3,
			"componentType":5123,
			"count":14208,
			"type":"SCALAR"
		},
		{
			"bufferView":4,
			"componentType":5126,
			"count":9474,
			"max":[
				0.6387295722961426,
				-0.045815546065568924,
				0.5999796986579895
			],
			"min":[
				-0.5984972715377808,
				-0.9488536715507507,
				-0.575912594795227
			],
			"type":"VEC3"
		},
		{
			"bufferView":5,
			"componentType":5126,
			"count":9474,
			"type":"VEC3"
		},
		{
			"bufferView":6,
			"componentType":5126,
			"count":9474,
			"type":"VEC2"
		},
		{
			"bufferView":7,
			"componentType":5123,
			"count":56832,
			"type":"SCALAR"
		},
		{
			"bufferView":8,
			"componentType":5126,
			"count":559,
			"max":[
				0.9999997019767761,
				1,
				0.9999994039535522
			],
			"min":[
				-0.9999990463256836,
				-1,
				-0.9999987483024597
			],
			"type":"VEC3"
		},
		{
			"bufferView":9,
			"componentType":5126,
			"count":559,
			"type":"VEC3"
		},
		{
			"bufferView":10,
			"componentType":5126,
			"count":559,
			"type":"VEC2"
		},
		{
			"bufferView":11,
			"componentType":5123,
			"count":2880,
			"type":"SCALAR"
		},
		{
			"bufferView":12,
			"componentType":5126,
			"count":559,
			"max":[
				0.9999997019767761,
				1,
				0.9999994039535522
			],
			"min":[
				-0.9999990463256836,
				-1,
				-0.9999987483024597
			],
			"type":"VEC3"
		},
		{
			"bufferView":13,
			"componentType":5126,
			"count":559,
			"type":"VEC3"
		},
		{
			"bufferView":14,
			"componentType":5126,
			"count":559,
			"type":"VEC2"
		}
	],
	"bufferViews":[
		{
			"buffer":0,
			"byteLength":31512,
			"byteOffset":0,
			"target":34962
		},
		{
			"buffer":0,
			"byteLength":31512,
			"byteOffset":31512,
			"target":34962
		},
		{
			"buffer":0,
			"byteLength":21008,
			"byteOffset":63024,
			"target":34962
		},
		{
			"buffer":0,
			"byteLength":28416,
			"byteOffset":84032,
			"target":34963
		},
		{
			"buffer":0,
			"byteLength":113688,
			"byteOffset":112448,
			"target":34962
		},
		{
			"buffer":0,
			"byteLength":113688,
			"byteOffset":226136,
			"target":34962
		},
		{
			"buffer":0,
			"byteLength":75792,
			"byteOffset":339824,
			"target":34962
		},
		{
			"buffer":0,
			"byteLength":113664,
			"byteOffset":415616,
			"target":34963
		},
		{
			"buffer":0,
			"byteLength":6708,
			"byteOffset":529280,
			"target":34962
		},
		{
			"buffer":0,
			"byteLength":6708,
			"byteOffset":535988,
			"target":34962
		},
		{
			"buffer":0,
			"byteLength":4472,
			"byteOffset":542696,
			"target":34962
		},
		{
			"buffer":0,
			"byteLength":5760,
			"byteOffset":547168,
			"target":34963
		},
		{
			"buffer":0,
			"byteLength":6708,
			"byteOffset":552928,
			"target":34962
		},
		{
			"buffer":0,
			"byteLength":6708,
			"byteOffset":559636,
			"target":34962
		},
		{
			"buffer":0,
			"byteLength":4472,
			"byteOffset":566344,
			"target":34962
		}
	],
	"buffers":[
		{
			"byteLength":570816,
			"uri":"data:application/octet-stream;base64,"
		}
	]
}
